<?xml version="1.0" encoding="UTF-8" standalone="no" ?>
<!DOCTYPE svg PUBLIC "-//W3C//DTD SVG 1.1//EN" "http://www.w3.org/Graphics/SVG/1.1/DTD/svg11.dtd">
<svg xmlns="http://www.w3.org/2000/svg" xmlns:xlink="http://www.w3.org/1999/xlink" version="1.1" width="48" height="48" viewBox="0 0 48 48" xml:space="preserve">
<desc>Created with Fabric.js 5.2.4</desc>
<defs>
</defs>
<g transform="matrix(1 0 0 1 24 24)" id="d92a9339-2d73-4b94-a51f-bb614116c3d4"  >
<rect style="stroke: none; stroke-width: 1; stroke-dasharray: none; stroke-linecap: butt; stroke-dashoffset: 0; stroke-linejoin: miter; stroke-miterlimit: 4; fill: rgb(255,255,255); fill-rule: nonzero; opacity: 1; visibility: hidden;" vector-effect="non-scaling-stroke"  x="-24" y="-24" rx="0" ry="0" width="48" height="48" />
</g>
<g transform="matrix(Infinity NaN NaN Infinity 0 0)" id="9d702b6c-a9b0-4dcc-9ef3-164f59f5cf6d"  >
</g>
<g transform="matrix(0.04 0 0 0.04 24 24)"  >
<g style="opacity: 1;" vector-effect="non-scaling-stroke"   >
		<g transform="matrix(1 0 0 1 0 0)"  >
<rect style="stroke: none; stroke-width: 1; stroke-dasharray: none; stroke-linecap: butt; stroke-dashoffset: 0; stroke-linejoin: miter; stroke-miterlimit: 4; fill: rgb(16,163,127); fill-rule: evenodd; opacity: 1;" vector-effect="non-scaling-stroke"  x="-256" y="-256" rx="104.187" ry="105.042" width="512" height="512" />
</g>
		<g transform="matrix(1 0 0 1 0 0)"  >
<path style="stroke: none; stroke-width: 1; stroke-dasharray: none; stroke-linecap: butt; stroke-dashoffset: 0; stroke-linejoin: miter; stroke-miterlimit: 4; fill: rgb(255,255,255); fill-rule: nonzero; opacity: 1;" vector-effect="non-scaling-stroke"  transform=" translate(-256, -256)" d="M 378.68 230.011 C 381.0988671296621 222.7418906758658 382.332628164444 215.13099645445956 382.334 207.47 C 382.3331121852923 194.7932520917131 378.95641322952144 182.34540673334445 372.551 171.406 C 359.68 149.002 335.804 135.17000000000002 309.964 135.17000000000002 C 304.873279274303 135.17006191548452 299.796796980093 135.70770982568018 294.81899999999996 136.77400000000006 C 281.27623692177485 121.51575358541659 261.85048316280495 112.78344595132538 241.44899999999998 112.78300000000004 L 240.996 112.78300000000003 L 240.82600000000002 112.78400000000003 C 209.52900000000002 112.78400000000003 181.77400000000003 132.97900000000004 172.15300000000002 162.75100000000003 C 152.00510230605337 166.87759918351207 134.61657060389166 179.49484520555058 124.444 197.36900000000006 C 118.05810918000712 208.37424712246712 114.69290769242195 220.8712014114739 114.68900000000004 233.59500000000003 C 114.691440462108 251.4767933383551 121.32922082162827 268.72155286696704 133.31700000000004 281.99 C 130.8971669074736 289.2588996604514 129.6630514439787 296.86989737936756 129.662 304.531 C 129.66312859677797 317.2077158199972 133.03981076075834 329.65549927719735 139.445 340.595 C 155.07340753846327 367.80575074488075 186.49059458495702 381.8033912940667 217.173 375.226 C 230.71751854947365 390.48428365281086 250.14432367403333 399.2167734146507 270.54699999999997 399.218 L 271 399.218 L 271.184 399.21700000000004 C 302.49800000000005 399.21700000000004 330.244 379.021 339.865 349.22200000000004 C 360.0128041936796 345.09396627771577 377.401229295829 332.47669760005255 387.575 314.60300000000007 C 393.9539692533192 303.6074415047573 397.31277257621497 291.12094525692555 397.311 278.40900000000005 C 397.3085977524037 260.5274983730188 390.67079576770107 243.28303899747118 378.683 230.01500000000001 L 378.68 230.01100000000005 z M 271.018 380.492 L 270.94399999999996 380.492 C 258.4139262615371 380.487839391267 246.28164752832595 376.09202468882347 236.65699999999998 368.069 C 237.22853533092507 367.7612748975437 237.79333459981086 367.44119975106764 238.35099999999994 367.10900000000004 L 295.3829999999999 334.16600000000005 C 298.2802476402071 332.51670811744737 300.0698948542976 329.43979759151534 300.0709999999999 326.10600000000005 L 300.0709999999999 245.64700000000005 L 324.1769999999999 259.56600000000003 C 324.43398482497514 259.6940974236615 324.6099702704638 259.942128083508 324.6459999999999 260.22700000000003 L 324.6459999999999 326.81300000000005 C 324.6129999999999 356.41700000000003 300.6239999999999 380.432 271.0179999999999 380.4920000000001 z M 155.68899999999996 331.235 C 150.97810483326677 323.08948020350573 148.49615790301803 313.8466767242387 148.49299999999997 304.437 C 148.49299999999997 301.368 148.76099999999997 298.291 149.28299999999996 295.267 C 149.70699999999997 295.521 150.44699999999995 295.973 150.97799999999995 296.278 L 208.00999999999993 329.221 C 210.9049006063162 330.9110609316526 214.4858211348845 330.91029659429324 217.37999999999994 329.219 L 287.00999999999993 289.014 L 287.00999999999993 316.853 L 287.0109999999999 316.901 C 287.01107875793446 317.1727744136489 286.8832778713672 317.4287466241357 286.6659999999999 317.592 L 229.0119999999999 350.88 C 220.85425649470872 355.5750576135517 211.60735030359868 358.0473817881521 202.19499999999988 358.05 C 183.018815147655 358.0472869326978 165.29671593340754 347.8277183452534 155.68899999999988 331.232 L 155.68899999999988 331.235 z M 140.68499999999997 206.729 C 146.94893122460115 195.84899213870253 156.83956796895598 187.51835811910246 168.62599999999995 183.19500000000005 C 168.62599999999998 183.68600000000004 168.59799999999998 184.556 168.59799999999998 185.16000000000003 L 168.59799999999998 251.04700000000003 L 168.59699999999998 251.10100000000003 C 168.59751679836072 254.43129039004546 170.38440565752373 257.5053805380565 173.278 259.15400000000005 L 242.908 299.35300000000007 L 218.803 313.27200000000005 C 218.56147641167078 313.43121312648816 218.25629981726362 313.4589905778856 217.99 313.34600000000006 L 160.33 280.0300000000001 C 143.7411385908018 270.4200618310377 133.52716713087293 252.7013648384358 133.525 233.5300000000001 C 133.52862517074277 224.12470174390785 135.9984246667839 214.88476220811128 140.688 206.73200000000008 L 140.68500000000003 206.7290000000001 z M 338.74 252.818 L 269.11 212.614 L 293.216 198.70000000000002 C 293.4574623244122 198.5406119878823 293.76272886496866 198.51282634950445 294.029 198.626 L 351.688 231.914 C 368.2910506275315 241.5092972428387 378.51883254158207 259.22868643479427 378.52299999999997 278.405 C 378.52299999999997 300.89399999999995 364.48999999999995 321.017 343.39 328.784 L 343.39 260.927 C 343.393 260.90200000000004 343.393 260.87600000000003 343.393 260.851 C 343.39209535336516 257.5333849812092 341.6173647045659 254.46946679900321 338.73999999999995 252.818 z M 362.733 216.70700000000002 C 362.17240664790444 216.36354796651347 361.60769906605697 216.0268569053175 361.03899999999993 215.697 L 304.007 182.75300000000004 C 302.5850112845412 181.92440776865652 300.9687875518044 181.48757189213114 299.323 181.48700000000005 C 297.6772124481956 181.48757189213114 296.06098871545873 181.9244077686565 294.63899999999995 182.75300000000004 L 225.00799999999995 222.95800000000003 L 225.00799999999995 195.11900000000003 L 225.00699999999995 195.07100000000003 C 225.00699999999995 194.79900000000004 225.13599999999994 194.54300000000003 225.35299999999995 194.38000000000002 L 283.00699999999995 161.12000000000003 C 291.16205963525107 156.41851979387027 300.4097692284805 153.94347460627304 309.8229999999999 153.94300000000004 C 339.4669999999999 153.94300000000004 363.50699999999995 177.98300000000003 363.50699999999995 207.62700000000004 C 363.50556498183323 210.66908531948485 363.24664075953575 213.70559070164774 362.73299999999995 216.70400000000004 L 362.73299999999995 216.70700000000002 z M 211.90200000000002 266.32500000000005 L 187.79100000000003 252.40600000000003 C 187.53401517502476 252.27790257633853 187.3580297295361 252.02987191649206 187.32200000000003 251.74500000000003 L 187.32200000000003 185.15800000000002 C 187.33500000000004 155.53000000000003 211.37500000000003 131.51000000000002 241.00600000000003 131.51000000000002 C 253.55562733149162 131.51260243859738 265.7082873276439 135.90891537673787 275.355 143.936 C 274.921 144.173 274.16400000000004 144.591 273.661 144.89600000000002 L 216.62900000000002 177.839 C 213.73215594255936 179.48709538848948 211.94272515217094 182.56314486110722 211.942 185.896 L 211.942 185.94899999999998 L 211.90200000000002 266.325 z M 224.997 238.09200000000004 L 256.009 220.18000000000004 L 287.021 238.08000000000004 L 287.021 273.89200000000005 L 256.009 291.79300000000006 L 224.997 273.89200000000005 L 224.997 238.09200000000004 z" stroke-linecap="round" />
</g>
</g>
</g>
</svg>